<svg width="20" height="20" viewBox="0 0 20 20" fill="none" xmlns="http://www.w3.org/2000/svg">
<g clip-path="url(#clip0_2766_3809)">
<path d="M9.17897 2.34453C9.21467 2.1534 9.31609 1.98078 9.46566 1.85656C9.61524 1.73234 9.80354 1.66434 9.99797 1.66434C10.1924 1.66434 10.3807 1.73234 10.5303 1.85656C10.6799 1.98078 10.7813 2.1534 10.817 2.34453L11.6926 6.97527C11.7548 7.3045 11.9148 7.60733 12.1517 7.84424C12.3887 8.08116 12.6915 8.24115 13.0207 8.30334L17.6514 9.179C17.8426 9.2147 18.0152 9.31612 18.1394 9.46569C18.2636 9.61527 18.3316 9.80357 18.3316 9.99801C18.3316 10.1924 18.2636 10.3807 18.1394 10.5303C18.0152 10.6799 17.8426 10.7813 17.6514 10.817L13.0207 11.6927C12.6915 11.7549 12.3887 11.9149 12.1517 12.1518C11.9148 12.3887 11.7548 12.6915 11.6926 13.0207L10.817 17.6515C10.7813 17.8426 10.6799 18.0152 10.5303 18.1394C10.3807 18.2637 10.1924 18.3317 9.99797 18.3317C9.80354 18.3317 9.61524 18.2637 9.46566 18.1394C9.31609 18.0152 9.21467 17.8426 9.17897 17.6515L8.30331 13.0207C8.24112 12.6915 8.08113 12.3887 7.84421 12.1518C7.6073 11.9149 7.30447 11.7549 6.97524 11.6927L2.3445 10.817C2.15337 10.7813 1.98075 10.6799 1.85653 10.5303C1.73231 10.3807 1.66431 10.1924 1.66431 9.99801C1.66431 9.80357 1.73231 9.61527 1.85653 9.46569C1.98075 9.31612 2.15337 9.2147 2.3445 9.179L6.97524 8.30334C7.30447 8.24115 7.6073 8.08116 7.84421 7.84424C8.08113 7.60733 8.24112 7.3045 8.30331 6.97527L9.17897 2.34453Z" stroke="white" stroke-width="1.66633" stroke-linecap="round" stroke-linejoin="round"/>
<path d="M16.6633 1.66632V4.99899" stroke="white" stroke-width="1.66633" stroke-linecap="round" stroke-linejoin="round"/>
<path d="M18.3297 3.33267H14.9971" stroke="white" stroke-width="1.66633" stroke-linecap="round" stroke-linejoin="round"/>
<path d="M3.33272 18.3297C4.25301 18.3297 4.99905 17.5836 4.99905 16.6633C4.99905 15.7431 4.25301 14.997 3.33272 14.997C2.41243 14.997 1.66638 15.7431 1.66638 16.6633C1.66638 17.5836 2.41243 18.3297 3.33272 18.3297Z" stroke="white" stroke-width="1.66633" stroke-linecap="round" stroke-linejoin="round"/>
</g>
<defs>
<clipPath id="clip0_2766_3809">
<rect width="19.996" height="19.996" fill="white"/>
</clipPath>
</defs>
</svg>
